<svg width="32" height="32" fill="none" xmlns="http://www.w3.org/2000/svg"><path d="M16 3a13.998 13.998 0 00-9.898 23.9A13.998 13.998 0 1025.898 7.1 13.998 13.998 0 0016 3z" fill="#28579A"/><path d="M8.1 17.166c4.296-1.693 7.16-2.81 8.591-3.35 4.094-1.54 4.943-1.807 5.498-1.816.122-.002.393.026.57.155.148.11.19.258.21.361.019.104.044.34.023.525-.22 2.108-1.18 7.225-1.669 9.586-.205 1-.612 1.334-1.006 1.367-.856.071-1.505-.512-2.334-1.003-1.296-.77-2.028-1.248-3.288-1.999-1.455-.867-.51-1.344.318-2.123.216-.204 3.987-3.307 4.059-3.589.009-.035.018-.166-.07-.236-.084-.069-.211-.045-.303-.026-.132.026-2.201 1.265-6.216 3.717-.587.365-1.119.544-1.598.534-.525-.01-1.537-.27-2.29-.49-.921-.272-1.656-.415-1.591-.876.032-.24.398-.486 1.096-.737z" fill="#fff"/></svg>