<svg width="32" height="32" fill="none" xmlns="http://www.w3.org/2000/svg"><path d="M16.001 2.667c7.364 0 13.334 5.969 13.334 13.333S23.365 29.333 16 29.333a13.272 13.272 0 01-6.706-1.806l-6.622 1.806 1.803-6.624A13.27 13.27 0 012.668 16c0-7.364 5.97-13.333 13.333-13.333zm-4.544 7.066l-.266.011a1.28 1.28 0 00-.496.133 1.722 1.722 0 00-.392.304c-.16.151-.251.282-.348.408a3.64 3.64 0 00-.755 2.238c.003.653.173 1.289.44 1.884.545 1.202 1.443 2.476 2.627 3.656.285.284.565.569.866.834a12.597 12.597 0 005.12 2.728l.758.116c.246.014.493-.005.741-.017.388-.02.768-.125 1.11-.308.175-.09.346-.188.511-.293 0 0 .058-.038.167-.12.18-.134.29-.228.44-.384.11-.115.207-.25.28-.403.104-.217.208-.632.25-.977.033-.264.023-.408.02-.498-.006-.142-.125-.29-.254-.353l-.776-.348s-1.16-.505-1.87-.828a.663.663 0 00-.234-.055.642.642 0 00-.504.17c-.007-.003-.096.073-1.06 1.241a.467.467 0 01-.49.173 1.91 1.91 0 01-.255-.088c-.166-.069-.223-.096-.336-.144a8.03 8.03 0 01-2.1-1.337c-.168-.147-.324-.307-.484-.461a8.393 8.393 0 01-1.36-1.691l-.079-.127a1.23 1.23 0 01-.136-.273c-.05-.196.081-.353.081-.353s.324-.355.475-.547c.147-.187.27-.368.35-.497.158-.254.207-.514.125-.715-.374-.912-.76-1.82-1.158-2.721-.078-.179-.312-.307-.524-.332a5.933 5.933 0 00-.216-.022 4.514 4.514 0 00-.537.006l.268-.011.001.001z" fill="#28579A"/></svg>