<svg width="37" height="37" fill="none" xmlns="http://www.w3.org/2000/svg"><circle cx="18.5" cy="18.5" r="10.5" fill="#fff"/><path d="M18.81 3.032c8.373 0 15.16 6.787 15.16 15.16 0 8.373-6.787 15.16-15.16 15.16a15.09 15.09 0 01-7.626-2.054l-7.528 2.054 2.05-7.531a15.089 15.089 0 01-2.056-7.629c0-8.373 6.787-15.16 15.16-15.16zm-5.167 8.035l-.303.012a1.456 1.456 0 00-.564.152c-.164.093-.314.21-.446.345-.181.172-.285.32-.395.464a4.138 4.138 0 00-.858 2.544c.003.743.197 1.466.5 2.142.62 1.367 1.64 2.815 2.986 4.157.325.323.643.647.986.949a14.323 14.323 0 005.821 3.102l.861.131c.28.016.561-.006.843-.02a3.016 3.016 0 001.263-.35c.198-.102.392-.213.58-.333 0 0 .066-.042.19-.136.205-.152.33-.26.5-.437.126-.13.235-.283.319-.458.118-.247.236-.718.285-1.111.036-.3.026-.464.021-.566-.006-.162-.141-.33-.288-.401l-.882-.396s-1.32-.574-2.126-.941a.753.753 0 00-.267-.062.73.73 0 00-.573.192c-.007-.003-.109.084-1.205 1.412a.531.531 0 01-.558.197 2.157 2.157 0 01-.29-.1c-.187-.08-.252-.11-.381-.164a9.133 9.133 0 01-2.388-1.52c-.191-.168-.368-.35-.55-.525a9.545 9.545 0 01-1.547-1.923l-.089-.144a1.396 1.396 0 01-.155-.31c-.057-.223.093-.402.093-.402s.368-.403.54-.622c.166-.212.307-.418.398-.565.18-.288.235-.584.141-.813a123.704 123.704 0 00-1.316-3.094c-.09-.203-.354-.349-.595-.377a5.116 5.116 0 00-.246-.024 5.147 5.147 0 00-.611.006l.305-.013.001.002z" fill="#28579A"/></svg>