<svg width="37" height="37" viewBox="0 0 37 37" fill="none" xmlns="http://www.w3.org/2000/svg">
<circle cx="18.5" cy="18.5" r="10.5" fill="white"/>
<path d="M18.8097 3.03223C27.1825 3.03223 33.9696 9.81928 33.9696 18.192C33.9696 26.5648 27.1825 33.3519 18.8097 33.3519C16.1307 33.3562 13.4987 32.6472 11.1844 31.2977L3.65599 33.3519L5.7056 25.8205C4.355 23.5054 3.64545 20.8723 3.64992 18.192C3.64992 9.81928 10.437 3.03223 18.8097 3.03223ZM13.6433 11.0669L13.3401 11.0791C13.1438 11.091 12.952 11.1426 12.7761 11.2307C12.6117 11.3238 12.4616 11.4402 12.3304 11.5763C12.1485 11.7476 12.0454 11.8962 11.9348 12.0402C11.374 12.7692 11.0721 13.6643 11.0767 14.584C11.0798 15.3268 11.2738 16.05 11.577 16.7261C12.197 18.0935 13.2173 19.5413 14.5635 20.8829C14.8879 21.2058 15.2063 21.5302 15.5489 21.8319C17.2216 23.3046 19.2149 24.3667 21.3702 24.9336L22.2313 25.0655C22.5118 25.0807 22.7922 25.0594 23.0742 25.0458C23.5157 25.023 23.9468 24.9035 24.337 24.6956C24.5355 24.5933 24.7293 24.4821 24.9176 24.3621C24.9176 24.3621 24.9828 24.3196 25.1071 24.2257C25.3118 24.0741 25.4376 23.9664 25.6074 23.789C25.7332 23.6587 25.8424 23.5056 25.9258 23.3312C26.044 23.0841 26.1623 22.6126 26.2108 22.22C26.2471 21.9198 26.2365 21.7561 26.232 21.6545C26.2259 21.4923 26.091 21.3241 25.944 21.2528L25.0616 20.8571C25.0616 20.8571 23.7427 20.2826 22.9362 19.9157C22.8519 19.8789 22.7614 19.8578 22.6694 19.8536C22.5657 19.8429 22.4609 19.8546 22.3621 19.8878C22.2632 19.921 22.1726 19.975 22.0964 20.0461C22.0888 20.0431 21.9872 20.1295 20.8912 21.4575C20.8283 21.542 20.7416 21.6059 20.6423 21.641C20.5429 21.6761 20.4354 21.6808 20.3333 21.6545C20.2345 21.6281 20.1378 21.5946 20.0438 21.5545C19.8558 21.4757 19.7906 21.4453 19.6617 21.3908C18.7917 21.0111 17.9861 20.4981 17.2741 19.8702C17.083 19.7035 16.9057 19.5216 16.7238 19.3457C16.1273 18.7745 15.6076 18.1284 15.1774 17.4234L15.088 17.2794C15.0238 17.1827 14.9718 17.0783 14.9334 16.9686C14.8758 16.7458 15.0259 16.5669 15.0259 16.5669C15.0259 16.5669 15.3942 16.1637 15.5655 15.9454C15.7323 15.7331 15.8733 15.5269 15.9642 15.3799C16.1431 15.0919 16.1992 14.7962 16.1052 14.5673C15.6808 13.5304 15.2411 12.498 14.7894 11.4732C14.6999 11.2701 14.4346 11.1245 14.1936 11.0957C14.1117 11.0866 14.0299 11.0775 13.948 11.0715C13.7444 11.0614 13.5404 11.0634 13.337 11.0775L13.6418 11.0654L13.6433 11.0669Z" fill="#28579A"/>
</svg>
