<svg xmlns="http://www.w3.org/2000/svg" width="3343.92" height="283.211" viewBox="0 0 884.745 74.933"><g stroke-width="2.157"><path d="M168.163 0c.964.005 1.963.062 3 .174-18.382 21.714-15.036 82.593-48.607 73.92C142.706 50.446 138.286-.132 168.163 0zm-35.998 0c.964.005 1.964.062 3.001.174-18.383 21.714-15.037 82.593-48.608 73.92C106.708 50.446 102.288-.132 132.165 0zM96.168 0c.964.005 1.964.062 3 .174-18.382 21.714-15.036 82.593-48.607 73.92C70.711 50.446 66.291-.132 96.168 0zM60.171 0c.964.005 1.963.062 3 .174-18.383 21.714-15.037 82.593-48.608 73.92C34.713 50.446 30.293-.132 60.171 0z" fill="#fff"/><path d="M135.166.174c7.67 4.799 7.715 12.076 9.779 18.446l-15.501-.486-6.05 6.556c3.09-9.64 6.656-18.473 11.772-24.516zm-35.997 0c7.67 4.799 7.714 12.076 9.778 18.446l-15.501-.486-6.05 6.556C90.487 15.05 94.054 6.217 99.17.174zm-35.998 0c7.67 4.799 7.715 12.076 9.779 18.446l-15.501-.486-6.05 6.556C54.489 15.05 58.056 6.217 63.17.174zM0 37.804c9.139 8.082 16.855 38.447 28.506 7.164-3.393 10.779-7.353 21.392-13.943 29.125C5.8 66.26 4.541 50.243 0 37.803zm134.393 13.551c-2.84 8.864-7.133 17.182-11.837 22.738-7.053-4.413-7.095-11.105-8.992-16.962l14.254.446zm-35.997 0c-2.841 8.864-7.134 17.182-11.838 22.738-7.053-4.413-7.094-11.105-8.992-16.962l14.254.446zm-35.998 0c-2.84 8.864-7.133 17.182-11.837 22.738-7.053-4.413-7.095-11.105-8.992-16.962l14.254.446z" fill="#999"/></g><path style="line-height:1.25;text-align:end" d="M322.609 10.444c-5.977 0-10.449.285-13.413.855-2.965.569-5.337 1.517-7.116 2.846-2.04 1.541-3.51 3.593-4.412 6.155-.901 2.561-1.352 6.048-1.352 10.46v14.445c0 4.08.45 7.329 1.352 9.748.901 2.396 2.372 4.34 4.412 5.835 1.803 1.328 4.162 2.277 7.08 2.846 2.94.57 7.448.854 13.52.854h18.963c6.76 0 11.515-.332 14.266-.996 2.775-.688 4.887-1.886 6.334-3.593l5.763 3.664 5.55-10.425-6.261-3.806c.237-.83.403-1.79.497-2.882.095-1.115.143-2.645.143-4.59V30.12c0-4.151-.451-7.484-1.352-9.998-.902-2.514-2.348-4.507-4.34-5.977-1.78-1.329-4.163-2.277-7.152-2.846-2.965-.57-7.447-.855-13.448-.855zm-78.558.428l-28.925 52.976h17.647l5.16-8.823h32.269l5.123 8.823h17.753l-28.391-52.976zm133.241 0v36.432c0 6.475 1.815 10.957 5.444 13.448 3.652 2.49 10.33 3.736 20.03 3.736h18.074c8.254 0 14.054-1.305 17.398-3.914 3.368-2.609 5.052-7.032 5.052-13.27V10.872h-16.188v31.415c0 3.44-.771 5.811-2.313 7.116-1.542 1.28-4.577 1.921-9.107 1.921h-9.18c-5.455 0-9-.605-10.637-1.815-1.613-1.233-2.42-3.64-2.42-7.222V10.872zm98.943 0l-28.924 52.976h17.646l5.16-8.823h32.269l5.123 8.823h17.754L496.87 10.872zm50.77 0v12.985h22.167v39.99h16.151v-39.99h22.166V10.872zm67.564 0v52.976h58.49V51.039h-42.337v-8.111H650V31.79h-39.278v-8.005h41.697V10.872zm68.132 0v52.976h16.224V50.292h24.122c2.894 0 4.827.392 5.8 1.175.996.782 1.494 2.217 1.494 4.305v8.076h16.188V52.996c0-2.68-.7-4.862-2.099-6.546-1.4-1.684-3.499-2.858-6.297-3.522 3.178-.76 5.443-2.253 6.795-4.483 1.352-2.23 2.028-5.634 2.028-10.211 0-6.594-1.518-11.136-4.554-13.626-3.036-2.491-8.752-3.736-17.148-3.736zm74.822 0v52.976h16.223V50.292h24.123c2.894 0 4.826.392 5.799 1.175.996.782 1.494 2.217 1.494 4.305v8.076h16.188V52.996c0-2.68-.7-4.862-2.099-6.546-1.4-1.684-3.499-2.858-6.297-3.522 3.178-.76 5.443-2.253 6.795-4.483 1.352-2.23 2.028-5.634 2.028-10.211 0-6.594-1.518-11.136-4.554-13.626-3.036-2.491-8.752-3.736-17.149-3.736zm98.196 0l-28.926 52.976h17.648l5.158-8.823h32.27l5.123 8.823h17.753l-28.39-52.976zM254.12 23.537l10.282 18.75h-20.35zm232.184 0l10.282 18.75h-20.35zm359.484 0l10.282 18.75h-20.351zm-518.803.107h11.065c5.787 0 9.605.711 11.455 2.134 1.85 1.4 2.776 4.033 2.776 7.899v2.56c0 .214.011.855.035 1.922.024 1.044.035 1.98.035 2.811a27.94 27.94 0 00-2.276-1.636 36.092 36.092 0 00-2.455-1.566l-10.425-6.12-5.763 9.108 12.025 7.116.605.356c2.016 1.21 3.368 1.921 4.056 2.135-.735.332-1.755.58-3.06.747-1.304.142-3.25.213-5.835.213h-16.081c-3.534 0-6.143-.806-7.828-2.419-1.684-1.613-2.525-4.115-2.525-7.507v-7.365c0-4.032.913-6.772 2.74-8.219 1.85-1.447 5.668-2.17 11.456-2.17zm351.94.426h25.723c2.04 0 3.523.474 4.448 1.423.925.949 1.387 2.467 1.387 4.555 0 2.632-.439 4.458-1.316 5.478-.854.996-2.36 1.495-4.519 1.495h-25.723zm74.821 0h25.723c2.04 0 3.522.474 4.447 1.423.926.949 1.389 2.467 1.389 4.555 0 2.632-.44 4.458-1.317 5.478-.854.996-2.36 1.495-4.519 1.495h-25.723z" font-size="43.857" font-family="sans-serif" text-anchor="end" fill="#fff"/></svg>