<?xml version="1.0" encoding="UTF-8" standalone="no"?> <!-- Created with Inkscape (http://www.inkscape.org/) --> <svg xmlns:inkscape="http://www.inkscape.org/namespaces/inkscape" xmlns:sodipodi="http://sodipodi.sourceforge.net/DTD/sodipodi-0.dtd" xmlns="http://www.w3.org/2000/svg" xmlns:svg="http://www.w3.org/2000/svg" width="3343.9199" height="283.21066" viewBox="0 0 884.74547 74.932821" id="svg5" inkscape:version="1.1 (c68e22c387, 2021-05-23)" sodipodi:docname="Белый.svg"> <defs id="defs2"></defs> <g inkscape:label="Слой 1" inkscape:groupmode="layer" id="layer1" transform="translate(210.86774,-93.928288)"> <g id="g7244" inkscape:export-filename="E:\Роботи\AQUATERRA\g7244.png" inkscape:export-xdpi="96" inkscape:export-ydpi="96" transform="translate(-791.86909,-1736.0302)"> <g id="g7028"> <g id="g6611"> <g id="g6057"> <g id="g1329" style="stroke-width:2.15704" transform="matrix(-0.46359715,0,0,0.46359715,756.37722,1437.019)"> <path id="path1325" style="fill:#ffffff;fill-opacity:1;stroke:none;stroke-width:1.49075px;stroke-linecap:butt;stroke-linejoin:miter;stroke-opacity:1" d="m 266.76758,3039.4355 c -5.43035,0.024 -11.06064,0.3454 -16.9043,0.9786 103.57433,122.3458 84.72016,465.3533 273.86914,416.4843 -113.53004,-133.2323 -88.62395,-418.2027 -256.96484,-417.4629 z m 202.82226,0 c -5.43035,0.024 -11.06258,0.3454 -16.90625,0.9786 103.57433,122.3458 84.72212,465.3533 273.8711,416.4843 -113.53004,-133.2323 -88.62396,-418.2027 -256.96485,-417.4629 z m 202.82032,0 c -5.43036,0.024 -11.06259,0.3454 -16.90625,0.9786 103.57432,122.3458 84.72211,465.3533 273.87109,416.4843 -113.53004,-133.2323 -88.62395,-418.2027 -256.96484,-417.4629 z m 202.82031,0 c -5.43035,0.024 -11.06064,0.3454 -16.9043,0.9786 103.57433,122.3458 84.72199,465.3533 273.87113,416.4843 -113.5301,-133.2323 -88.626,-418.2027 -256.96683,-417.4629 z" transform="matrix(0.38284034,0,0,0.38284034,-86.570974,-316.02974)"></path> <path id="path1327" style="fill:#999999;fill-opacity:1;stroke:none;stroke-width:1.49075px;stroke-linecap:butt;stroke-linejoin:miter;stroke-opacity:1" d="m 452.68359,3040.4141 c -43.21616,27.0377 -43.46975,68.0424 -55.09765,103.9316 l 87.33984,-2.7383 34.08594,36.9375 c -17.40744,-54.3119 -37.50569,-104.0842 -66.32813,-138.1308 z m 202.82032,0 c -43.21617,27.0377 -43.4678,68.0424 -55.09571,103.9316 l 87.33985,-2.7383 34.08398,36.9375 c -17.40744,-54.3119 -37.50569,-104.0842 -66.32812,-138.1308 z m 202.82226,0 c -43.21616,27.0377 -43.46975,68.0424 -55.09765,103.9316 l 87.33984,-2.7383 34.08594,36.9375 c -17.40744,-54.3119 -37.50572,-104.0842 -66.32813,-138.1308 z m 355.92583,212.0175 c -51.491,45.5366 -94.967,216.626 -160.6094,40.3692 19.1173,60.7272 41.427,120.5267 78.5547,164.0976 49.3767,-44.1404 56.4693,-134.3835 82.0547,-204.4668 z m -757.21489,76.3536 c 16.00722,49.9429 40.19134,96.8056 66.69531,128.1132 39.74001,-24.8625 39.97354,-62.5698 50.66602,-95.5722 l -80.31446,2.5176 z m 202.82031,0 c 16.00725,49.9429 40.19329,96.8056 66.69727,128.1132 39.74001,-24.8625 39.97161,-62.5698 50.66406,-95.5722 l -80.3125,2.5176 z m 202.82227,0 c 16.00724,49.9429 40.19134,96.8056 66.69531,128.1132 39.74006,-24.8625 39.97357,-62.5698 50.66602,-95.5722 l -80.31446,2.5176 z" transform="matrix(0.38284034,0,0,0.38284034,-86.570974,-316.02974)"></path> </g> <path id="path1331" style="font-size:43.8573px;line-height:1.25;font-family:sans-serif;text-align:end;text-anchor:end;fill:#ffffff;fill-opacity:1;stroke:none;stroke-width:0.264584" d="m 903.61009,1840.4028 c -5.97716,0 -10.44829,0.285 -13.41315,0.8543 -2.96485,0.5692 -5.33673,1.5178 -7.11567,2.846 -2.03981,1.5418 -3.51078,3.5933 -4.41209,6.155 -0.9013,2.5617 -1.35223,6.048 -1.35223,10.4597 v 14.4452 c 0,4.0796 0.45093,7.3294 1.35223,9.7487 0.90131,2.3956 2.37228,4.3404 4.41209,5.8348 1.80264,1.3282 4.16219,2.2768 7.07963,2.846 2.94113,0.5692 7.44843,0.8544 13.52044,0.8544 h 18.96282 c 6.75986,0 11.51513,-0.3327 14.2665,-0.9969 2.77513,-0.6878 4.88669,-1.8852 6.33353,-3.593 l 5.76347,3.6643 5.55051,-10.4245 -6.26227,-3.8068 c 0.2372,-0.8302 0.4031,-1.7903 0.49794,-2.8813 0.095,-1.1148 0.14246,-2.6449 0.14246,-4.5899 v -11.7406 c 0,-4.1508 -0.45092,-7.4836 -1.35223,-9.9979 -0.9013,-2.5141 -2.34761,-4.5066 -4.33998,-5.9772 -1.7789,-1.3282 -4.16312,-2.2768 -7.15172,-2.846 -2.96487,-0.5693 -7.44745,-0.8543 -13.44831,-0.8543 z m -78.55739,0.4275 -28.9254,52.976 h 17.64751 l 5.15901,-8.8233 h 32.26949 l 5.12297,8.8233 h 17.7531 l -28.3914,-52.976 z m 133.24104,0 v 36.4317 c 0,6.4753 1.81424,10.9579 5.44321,13.4485 3.65272,2.4904 10.3298,3.7364 20.03079,3.7364 h 18.07336 c 8.2542,0 14.0542,-1.3051 17.3986,-3.9142 3.368,-2.6091 5.0516,-7.0326 5.0516,-13.2707 v -36.4317 h -16.1879 v 31.4152 c 0,3.4393 -0.7713,5.8112 -2.3129,7.1157 -1.5418,1.2809 -4.5773,1.9215 -9.10756,1.9215 h -9.1796 c -5.45533,0 -9.00083,-0.6054 -10.63743,-1.815 -1.6129,-1.2334 -2.41941,-3.6405 -2.41941,-7.2222 v -31.4152 z m 98.94286,0 -28.9247,52.976 h 17.6467 l 5.159,-8.8233 h 32.2694 l 5.123,8.8233 h 17.754 l -28.3914,-52.976 z m 50.7703,0 v 12.9856 h 22.1661 v 39.9904 h 16.1518 v -39.9904 h 22.1652 v -12.9856 z m 67.5636,0 v 52.976 h 58.4906 v -12.8086 h -42.3379 v -8.1117 h 39.2779 v -11.1362 h -39.2779 v -8.0052 h 41.6974 v -12.9143 z m 68.1321,0 v 52.976 h 16.2239 v -13.5556 h 24.1219 c 2.8938,0 4.827,0.3918 5.7995,1.1745 0.9962,0.7827 1.4947,2.2175 1.4947,4.3048 v 8.0763 h 16.188 v -10.852 c 0,-2.6803 -0.6997,-4.8616 -2.0991,-6.5456 -1.3995,-1.684 -3.4987,-2.8585 -6.2976,-3.5227 3.1784,-0.759 5.4435,-2.2528 6.7955,-4.4825 1.352,-2.2295 2.0279,-5.6338 2.0279,-10.2115 0,-6.5939 -1.5177,-11.1356 -4.5537,-13.626 -3.036,-2.4906 -8.7523,-3.7357 -17.1487,-3.7357 z m 74.8217,0 v 52.976 h 16.2233 v -13.5556 h 24.1226 c 2.8937,0 4.8262,0.3918 5.7987,1.1745 0.9961,0.7827 1.4948,2.2175 1.4948,4.3048 v 8.0763 h 16.1878 v -10.852 c 0,-2.6803 -0.6997,-4.8616 -2.0989,-6.5456 -1.3997,-1.684 -3.4989,-2.8585 -6.2976,-3.5227 3.1784,-0.759 5.4433,-2.2528 6.7954,-4.4825 1.3521,-2.2295 2.028,-5.6338 2.028,-10.2115 0,-6.5939 -1.5178,-11.1356 -4.5538,-13.626 -3.0362,-2.4906 -8.7523,-3.7357 -17.1488,-3.7357 z m 98.1958,0 -28.9254,52.976 h 17.6476 l 5.1581,-8.8233 h 32.2696 l 5.1238,8.8233 h 17.753 l -28.3913,-52.976 z m -581.59828,12.6653 10.28197,18.7499 H 825.0527 Z m 232.18378,0 10.282,18.7499 h -20.351 z m 359.4838,0 10.282,18.7499 h -20.3513 z m -518.80327,0.1065 h 11.06496 c 5.78744,0 9.60557,0.7114 11.45567,2.1345 1.85004,1.3993 2.77567,4.0324 2.77567,7.8986 v 2.5611 c 0,0.2135 0.0114,0.8541 0.0351,1.9215 0.0236,1.0436 0.0353,1.9806 0.0353,2.8108 -0.71161,-0.5693 -1.47043,-1.1145 -2.27688,-1.6364 -0.78272,-0.5455 -1.60073,-1.0679 -2.45461,-1.5659 l -10.42451,-6.1199 -5.76348,9.1084 12.02487,7.1157 0.60531,0.3563 c 2.01608,1.2097 3.36792,1.9209 4.05576,2.1343 -0.73529,0.3321 -1.75532,0.581 -3.05985,0.747 -1.30453,0.1422 -3.24936,0.2137 -5.8347,0.2137 h -16.08151 c -3.53413,0 -6.14336,-0.8064 -7.82743,-2.4193 -1.68403,-1.6129 -2.52586,-4.1154 -2.52586,-7.5072 v -7.3646 c 0,-4.0323 0.91331,-6.7721 2.73967,-8.2189 1.85005,-1.4469 5.66906,-2.1697 11.45651,-2.1697 z m 351.94037,0.4268 h 25.7231 c 2.0399,0 3.5223,0.4739 4.4473,1.4227 0.925,0.9487 1.3875,2.4673 1.3875,4.5545 0,2.6328 -0.4387,4.4585 -1.3162,5.4785 -0.8539,0.9961 -2.3601,1.4947 -4.5186,1.4947 h -25.7231 z m 74.8211,0 h 25.7229 c 2.0399,0 3.5223,0.4739 4.4473,1.4227 0.9251,0.9487 1.3884,2.4673 1.3884,4.5545 0,2.6328 -0.4395,4.4585 -1.317,5.4785 -0.854,0.9961 -2.3603,1.4947 -4.5187,1.4947 h -25.7229 z"></path> </g> </g> </g> </g> </g> </svg> 